<svg width="48" height="49" viewBox="0 0 48 49" fill="none" xmlns="http://www.w3.org/2000/svg">
<rect width="48" height="48" fill="#5F1415"/>
<path d="M47.2924 24.8746C47.2924 29.0014 46.148 33.0473 43.9863 36.5626C41.8247 40.078 38.7305 42.9249 35.0477 44.7871L24.9792 24.8746H47.2924Z" fill="#FFF3BF"/>
<path d="M47.3495 24.8269C47.2936 28.995 46.1295 33.0701 43.9825 36.6134C41.8355 40.1566 38.787 43.0337 35.1653 44.9347L34.1488 42.8957C37.4083 41.1847 40.1519 38.5954 42.0842 35.4065C44.0165 32.2176 45.0643 28.55 45.1146 24.7987L47.3495 24.8269Z" fill="#A86E18"/>
<path d="M46 24C46 18.9912 44.3649 14.1192 41.3432 10.1246C38.3214 6.12987 34.0783 3.23079 29.2584 1.86785C24.4386 0.50492 19.3056 0.752638 14.6394 2.57337C9.97322 4.3941 6.02894 7.6883 3.40593 11.9554C0.782911 16.2225 -0.375442 21.2292 0.106886 26.2148C0.589213 31.2003 2.68585 35.8922 6.07821 39.5773C9.47057 43.2625 13.9732 45.7395 18.9019 46.632C23.8305 47.5244 28.9158 46.7836 33.385 44.522L23 24H46Z" fill="#FFF3BF"/>
<path d="M46 24C46 18.9911 44.3648 14.119 41.343 10.1243C38.3211 6.12956 34.0778 3.2305 29.2578 1.86768C24.4378 0.504848 19.3047 0.752756 14.6385 2.57373C9.97227 4.3947 6.02806 7.68918 3.40523 11.9565C0.782405 16.2239 -0.375652 21.2308 0.107045 26.2164C0.589741 31.2021 2.6868 35.8938 6.07955 39.5788C9.4723 43.2637 13.9753 45.7404 18.9041 46.6324C23.833 47.5244 28.9184 46.7829 33.3874 44.5208L32.3486 42.4687C28.3265 44.5046 23.7497 45.1719 19.3137 44.3691C14.8777 43.5663 10.8251 41.3373 7.7716 38.0209C4.71812 34.7045 2.83077 30.4819 2.39634 25.9948C1.96191 21.5077 3.00417 17.0015 5.36471 13.1609C7.72526 9.32026 11.275 6.35523 15.4746 4.71636C19.6742 3.07748 24.294 2.85436 28.632 4.08091C32.97 5.30745 36.789 7.9166 39.5087 11.5119C42.2283 15.1071 43.7 19.4919 43.7 24H46Z" fill="#A86E18"/>
</svg>
