<svg width="47" height="24" viewBox="0 0 47 24" fill="none" xmlns="http://www.w3.org/2000/svg">
<path d="M0.914062 23V2.375H6.36328C7.50391 2.375 8.40625 2.62891 9.07031 3.13672C9.74219 3.64453 10.2227 4.36719 10.5117 5.30469C10.8008 6.24219 10.9453 7.35938 10.9453 8.65625C10.9453 9.90625 10.8242 10.9961 10.582 11.9258C10.3398 12.8477 9.90625 13.5625 9.28125 14.0703C8.66406 14.5781 7.78516 14.832 6.64453 14.832H4.96875V23H0.914062ZM4.96875 11.1289H5.20312C5.96875 11.1289 6.4375 10.9141 6.60938 10.4844C6.78125 10.0547 6.86719 9.42188 6.86719 8.58594C6.86719 7.80469 6.78125 7.20312 6.60938 6.78125C6.44531 6.35156 6.05078 6.13672 5.42578 6.13672H4.96875V11.1289ZM12.1641 4.34375V0.851562H16.3594V4.34375H12.1641ZM12.1641 23V5.42188H16.3594V23H12.1641ZM17.5078 23V20.4336L21.8906 8.75H17.7188V5.42188H26.2383V8.28125L22.1016 19.8594H26.2734V23H17.5078ZM26.7656 23V20.4336L31.1484 8.75H26.9766V5.42188H35.4961V8.28125L31.3594 19.8594H35.5312V23H26.7656ZM39.7383 23.1875C38.7617 23.1875 38.0156 22.9609 37.5 22.5078C36.9922 22.0547 36.6445 21.4336 36.457 20.6445C36.2695 19.8555 36.1758 18.9609 36.1758 17.9609C36.1758 16.8906 36.2812 16.0156 36.4922 15.3359C36.7031 14.6484 37.0625 14.0859 37.5703 13.6484C38.0859 13.2109 38.793 12.8398 39.6914 12.5352L42.293 11.6445V9.83984C42.293 8.89453 41.9844 8.42188 41.3672 8.42188C40.8047 8.42188 40.5234 8.80469 40.5234 9.57031V10.625H36.4453C36.4375 10.5625 36.4336 10.4844 36.4336 10.3906C36.4336 10.2891 36.4336 10.1758 36.4336 10.0508C36.4336 8.30078 36.8438 7.0625 37.6641 6.33594C38.4922 5.60156 39.8008 5.23438 41.5898 5.23438C42.5273 5.23438 43.3672 5.40234 44.1094 5.73828C44.8516 6.06641 45.4375 6.55469 45.8672 7.20312C46.3047 7.85156 46.5234 8.65234 46.5234 9.60547V23H42.3516V20.9141C42.1484 21.6484 41.8125 22.2109 41.3438 22.6016C40.875 22.9922 40.3398 23.1875 39.7383 23.1875ZM41.3906 19.9297C41.7344 19.9297 41.9688 19.7852 42.0938 19.4961C42.2188 19.207 42.2812 18.8945 42.2812 18.5586V13.6602C41.7031 13.8945 41.2539 14.1914 40.9336 14.5508C40.6133 14.9023 40.4531 15.4219 40.4531 16.1094V18.3711C40.4531 19.4102 40.7656 19.9297 41.3906 19.9297Z" fill="#FFF3BF"/>
</svg>
